<svg width="1200" height="630" viewBox="0 0 1200 630" fill="none" xmlns="http://www.w3.org/2000/svg"><path fill="#000" d="M0 0h1200v630H0z"/><defs><linearGradient id="g" x1="0%" y1="0%" x2="100%" y2="100%"><stop offset="0%" stop-color="#06b6d4"/><stop offset="100%" stop-color="#3b82f6"/></linearGradient><linearGradient id="h" x1="0%" y1="0%" x2="100%" y2="0%"><stop offset="0%" stop-color="#06b6d4"/><stop offset="50%" stop-color="#3b82f6"/><stop offset="100%" stop-color="#8b5cf6"/></linearGradient><linearGradient id="b" x1="0%" y1="0%" x2="100%" y2="100%"><stop offset="0%" stop-color="#06b6d4"/><stop offset="100%" stop-color="#3b82f6"/></linearGradient><linearGradient id="d" x1="0%" y1="0%" x2="100%" y2="100%"><stop offset="0%" stop-color="#8b5cf6"/><stop offset="100%" stop-color="#ec4899"/></linearGradient><linearGradient id="e" x1="0%" y1="0%" x2="100%" y2="100%"><stop offset="0%" stop-color="#10b981"/><stop offset="100%" stop-color="#06b6d4"/></linearGradient><radialGradient id="a" cx="50%" cy="-20%" r="80%"><stop offset="0%" stop-color="#06b6d4" stop-opacity=".25"/><stop offset="70%" stop-color="#06b6d4" stop-opacity="0"/></radialGradient><filter id="c" x="-50%" y="-50%" width="200%" height="200%"><feGaussianBlur in="SourceGraphic" stdDeviation="50"/></filter></defs><path fill="url(#a)" d="M0 0h1200v630H0z"/><g opacity=".5"><circle cx="150" cy="100" r="200" fill="url(#b)" filter="url(#c)"/><circle cx="1050" cy="530" r="150" fill="url(#d)" filter="url(#c)"/><circle cx="600" cy="315" r="180" fill="url(#e)" filter="url(#c)"/></g><defs><pattern id="f" x="0" y="0" width="40" height="40" patternUnits="userSpaceOnUse"><path d="M40 0H0v40" stroke="#fff" opacity=".03"/></pattern></defs><path fill="url(#f)" d="M0 0h1200v630H0z"/><g transform="translate(550 50)"><rect width="100" height="100" rx="24" fill="url(#g)"/><rect width="100" height="100" rx="24" fill="url(#g)" opacity=".3" transform="translate(0 10)" filter="url(#c)"/><rect x="20" y="20" width="35" height="35" rx="6" stroke="#fff" stroke-width="4"/><rect x="45" y="45" width="25" height="25" rx="6" fill="#fff"/><path d="M55 20h25v25" stroke="#fff" stroke-width="3" stroke-linecap="round"/></g><text x="600" y="260" font-family="-apple-system, BlinkMacSystemFont, sans-serif" font-size="84" font-weight="900" fill="#fff" text-anchor="middle" letter-spacing="-3">
    Rule Engine
</text><text x="600" y="340" font-family="-apple-system, BlinkMacSystemFont, sans-serif" font-size="84" font-weight="900" fill="url(#h)" text-anchor="middle" letter-spacing="-3">
    Builder
</text><text x="600" y="390" font-family="-apple-system, BlinkMacSystemFont, sans-serif" font-size="26" fill="#94a3b8" text-anchor="middle" letter-spacing="-.5">
    Visual Business Logic Designer for Modern Applications
</text><g transform="translate(240 440)"><rect width="200" height="70" rx="16" fill="rgba(30, 41, 59, 0.6)" stroke="rgba(100, 116, 139, 0.3)"/><rect x="15" y="12" width="50" height="24" rx="8" fill="rgba(16, 185, 129, 0.2)" stroke="rgba(16, 185, 129, 0.3)"/><text x="40" y="29" font-family="-apple-system, BlinkMacSystemFont, sans-serif" font-size="14" font-weight="700" fill="#10b981" text-anchor="middle">
    AND
</text><text x="15" y="52" font-family="-apple-system, BlinkMacSystemFont, sans-serif" font-size="18">
    <tspan fill="#06b6d4" font-weight="600">user.age</tspan>
    <tspan fill="#8b5cf6" font-weight="600"> &gt; </tspan>
    <tspan fill="#f59e0b" font-weight="600">18</tspan>
</text></g><text x="480" y="40" font-family="-apple-system, BlinkMacSystemFont, sans-serif" font-size="28" fill="#475569" text-anchor="middle" transform="translate(0 440)">
    +
</text><g transform="translate(500 440)"><rect width="220" height="70" rx="16" fill="rgba(30, 41, 59, 0.6)" stroke="rgba(100, 116, 139, 0.3)"/><rect x="15" y="12" width="40" height="24" rx="8" fill="rgba(59, 130, 246, 0.2)" stroke="rgba(59, 130, 246, 0.3)"/><text x="35" y="29" font-family="-apple-system, BlinkMacSystemFont, sans-serif" font-size="14" font-weight="700" fill="#3b82f6" text-anchor="middle">
    OR
</text><text x="15" y="52" font-family="-apple-system, BlinkMacSystemFont, sans-serif" font-size="18">
    <tspan fill="#06b6d4" font-weight="600">user.role</tspan>
    <tspan fill="#8b5cf6" font-weight="600"> = </tspan>
    <tspan fill="#f59e0b" font-weight="600">&quot;admin&quot;</tspan>
</text></g><text x="760" y="40" font-family="-apple-system, BlinkMacSystemFont, sans-serif" font-size="28" fill="#475569" text-anchor="middle" transform="translate(0 440)">
    →
</text><g transform="translate(800 440)"><rect width="140" height="70" rx="16" fill="rgba(16, 185, 129, 0.15)" stroke="rgba(16, 185, 129, 0.3)"/><text x="70" y="42" font-family="-apple-system, BlinkMacSystemFont, sans-serif" font-size="18" font-weight="700" fill="#10b981" text-anchor="middle">
    ✓ Rule Passed
</text></g><g transform="translate(340 560)"><rect width="100" height="30" rx="15" fill="rgba(30, 41, 59, 0.6)" stroke="rgba(100, 116, 139, 0.3)"/><text x="50" y="20" font-family="-apple-system, BlinkMacSystemFont, sans-serif" font-size="14" fill="#94a3b8" text-anchor="middle" font-weight="500">
    TypeScript
</text></g><g transform="translate(450 560)"><rect width="90" height="30" rx="15" fill="rgba(30, 41, 59, 0.6)" stroke="rgba(100, 116, 139, 0.3)"/><text x="45" y="20" font-family="-apple-system, BlinkMacSystemFont, sans-serif" font-size="14" fill="#94a3b8" text-anchor="middle" font-weight="500">
    React 18+
</text></g><g transform="translate(550 560)"><rect width="140" height="30" rx="15" fill="rgba(30, 41, 59, 0.6)" stroke="rgba(100, 116, 139, 0.3)"/><text x="70" y="20" font-family="-apple-system, BlinkMacSystemFont, sans-serif" font-size="14" fill="#94a3b8" text-anchor="middle" font-weight="500">
    Real-time Eval
</text></g><g transform="translate(700 560)"><rect width="100" height="30" rx="15" fill="rgba(30, 41, 59, 0.6)" stroke="rgba(100, 116, 139, 0.3)"/><text x="50" y="20" font-family="-apple-system, BlinkMacSystemFont, sans-serif" font-size="14" fill="#94a3b8" text-anchor="middle" font-weight="500">
    Dark Mode
</text></g><g transform="translate(810 560)"><rect width="110" height="30" rx="15" fill="rgba(30, 41, 59, 0.6)" stroke="rgba(100, 116, 139, 0.3)"/><text x="55" y="20" font-family="-apple-system, BlinkMacSystemFont, sans-serif" font-size="14" fill="#94a3b8" text-anchor="middle" font-weight="500">
    Mobile First
</text></g><rect x="-40" y="-40" width="80" height="80" rx="20" stroke="rgba(6, 182, 212, 0.2)" stroke-width="2" transform="rotate(45 -63.64 153.64)"/><rect x="-50" y="-50" width="100" height="100" rx="24" stroke="rgba(139, 92, 246, 0.2)" stroke-width="2" transform="rotate(45 -96.838 1609.889)"/><circle cx="200" cy="450" r="2" fill="#06b6d4" opacity=".6"/><circle cx="900" cy="150" r="3" fill="#3b82f6" opacity=".4"/><circle cx="750" cy="380" r="2" fill="#8b5cf6" opacity=".5"/><circle cx="150" cy="550" r="3" fill="#10b981" opacity=".4"/><circle cx="1000" cy="250" r="2" fill="#06b6d4" opacity=".5"/><circle cx="350" cy="200" r="3" fill="#3b82f6" opacity=".6"/><circle cx="1100" cy="400" r="2" fill="#8b5cf6" opacity=".4"/><circle cx="550" cy="550" r="3" fill="#10b981" opacity=".5"/></svg>
